<?xml version="1.0" encoding="UTF-8"?>
<svg width="126px" height="126px" viewBox="0 0 126 126" version="1.1" xmlns="http://www.w3.org/2000/svg" xmlns:xlink="http://www.w3.org/1999/xlink" xmlns:sketch="http://www.bohemiancoding.com/sketch/ns">
    <!-- Generator: Sketch 3.4.2 (15855) - http://www.bohemiancoding.com/sketch -->
    <title>facebook</title>
    <desc>Created with Sketch.</desc>
    <defs></defs>
    <g id="Page-1" stroke="none" stroke-width="1" fill="none" fill-rule="evenodd" sketch:type="MSPage">
        <g id="facebook" sketch:type="MSLayerGroup" fill="#3B5998">
            <g id="Page-1" sketch:type="MSShapeGroup">
                <g id="facebook">
                    <g id="facebook26">
                        <g id="Shape">
                            <path d="M5.05151476e-15,5.05151476e-15 L126,5.05151476e-15 L126,126 L5.05151476e-15,126 L5.05151476e-15,5.05151476e-15 Z M106.914,64.792 L92.656,64.792 L92.656,116.527 L71.31,116.527 L71.31,64.792 L60.637,64.792 L60.637,46.949 L71.31,46.949 L71.31,36.276 C71.31,28.617 73.103,22.833 76.687,18.922 C80.271,15.011 86.191,13.056 94.448,13.056 L108.706,13.056 L108.706,30.899 L99.745,30.899 C96.703,30.899 94.761,31.428 93.919,32.488 C93.077,33.547 92.656,35.407 92.656,38.069 L92.656,46.949 L108.788,46.949 L106.914,64.792 L106.914,64.792 L106.914,64.792 Z"></path>
                        </g>
                    </g>
                </g>
            </g>
        </g>
    </g>
</svg>