<?xml version="1.0" encoding="UTF-8"?>
<svg width="126px" height="126px" viewBox="0 0 126 126" version="1.1" xmlns="http://www.w3.org/2000/svg" xmlns:xlink="http://www.w3.org/1999/xlink" xmlns:sketch="http://www.bohemiancoding.com/sketch/ns">
    <!-- Generator: Sketch 3.4.2 (15855) - http://www.bohemiancoding.com/sketch -->
    <title>twitter</title>
    <desc>Created with Sketch.</desc>
    <defs></defs>
    <g id="Page-1" stroke="none" stroke-width="1" fill="none" fill-rule="evenodd" sketch:type="MSPage">
        <g id="twitter" sketch:type="MSLayerGroup" fill="#1D8EF0">
            <g id="Page-1" sketch:type="MSShapeGroup">
                <g id="twitter">
                    <g id="twitter15">
                        <g id="Shape">
                            <path d="M118.686,7.313 C114.098,2.724 108.571,0.429 102.108,0.429 L23.893,0.429 C17.43,0.429 11.903,2.724 7.313,7.313 C2.724,11.903 0.429,17.43 0.429,23.893 L0.429,102.107 C0.429,108.57 2.724,114.097 7.313,118.687 C11.903,123.277 17.43,125.572 23.893,125.572 L102.107,125.572 C108.57,125.572 114.097,123.277 118.685,118.687 C123.275,114.097 125.57,108.57 125.57,102.107 L125.57,23.893 C125.57,17.43 123.275,11.902 118.686,7.313 L118.686,7.313 L118.686,7.313 Z M96.159,48.58 C96.214,49.069 96.241,49.801 96.241,50.78 C96.241,55.343 95.575,59.919 94.245,64.508 C92.915,69.098 90.878,73.497 88.135,77.707 C85.393,81.916 82.12,85.637 78.319,88.868 C74.516,92.099 69.955,94.68 64.631,96.607 C59.309,98.537 53.605,99.501 47.522,99.501 C38.072,99.501 29.327,96.947 21.288,91.843 C22.592,92.005 23.95,92.087 25.362,92.087 C33.238,92.087 40.326,89.643 46.627,84.754 C42.934,84.7 39.634,83.561 36.728,81.332 C33.822,79.105 31.799,76.281 30.658,72.859 C32.07,73.076 33.129,73.183 33.835,73.183 C35.03,73.183 36.415,72.967 37.99,72.533 C34.025,71.771 30.685,69.804 27.969,66.626 C25.253,63.449 23.895,59.823 23.895,55.75 L23.895,55.587 C26.773,56.944 29.489,57.65 32.042,57.705 C27.099,54.391 24.628,49.639 24.628,43.447 C24.628,40.405 25.415,37.527 26.99,34.811 C31.281,40.08 36.496,44.289 42.633,47.439 C48.77,50.589 55.343,52.355 62.349,52.735 C62.078,51.703 61.942,50.399 61.942,48.824 C61.942,44.098 63.612,40.066 66.952,36.725 C70.293,33.385 74.326,31.714 79.051,31.714 C84.049,31.714 88.204,33.507 91.517,37.092 C95.265,36.386 98.906,35 102.435,32.937 C101.078,37.118 98.551,40.296 94.859,42.469 C98.388,41.979 101.674,41.056 104.715,39.698 C102.434,43.175 99.581,46.135 96.159,48.58 L96.159,48.58 L96.159,48.58 Z"></path>
                        </g>
                    </g>
                </g>
            </g>
        </g>
    </g>
</svg>